<svg width="512" height="512" viewBox="0 0 512 512" xmlns="http://www.w3.org/2000/svg">
  <defs>
    <linearGradient id="grad1" x1="0%" y1="0%" x2="100%" y2="100%">
      <stop offset="0%" style="stop-color:#667eea;stop-opacity:1" />
      <stop offset="100%" style="stop-color:#764ba2;stop-opacity:1" />
    </linearGradient>
  </defs>
  
  <!-- Background -->
  <rect width="512" height="512" rx="80" fill="url(#grad1)"/>
  
  <!-- Book shape -->
  <rect x="120" y="100" width="272" height="312" rx="20" fill="white" opacity="0.95"/>
  <rect x="120" y="100" width="20" height="312" rx="10" fill="white" opacity="0.8"/>
  
  <!-- Pages -->
  <line x1="160" y1="140" x2="360" y2="140" stroke="#667eea" stroke-width="3" opacity="0.6"/>
  <line x1="160" y1="170" x2="340" y2="170" stroke="#667eea" stroke-width="3" opacity="0.6"/>
  <line x1="160" y1="200" x2="350" y2="200" stroke="#667eea" stroke-width="3" opacity="0.6"/>
  <line x1="160" y1="230" x2="320" y2="230" stroke="#667eea" stroke-width="3" opacity="0.6"/>
  
  <!-- English text -->
  <text x="160" y="280" font-family="Arial, sans-serif" font-size="24" font-weight="bold" fill="#667eea">APPLE</text>
  <text x="160" y="310" font-family="Arial, sans-serif" font-size="18" fill="#764ba2">olma</text>
  
  <!-- Decorative elements -->
  <circle cx="180" cy="350" r="8" fill="#28a745" opacity="0.8"/>
  <circle cx="210" cy="350" r="8" fill="#ffc107" opacity="0.8"/>
  <circle cx="240" cy="350" r="8" fill="#dc3545" opacity="0.8"/>
  
  <!-- Star -->
  <polygon points="320,340 325,350 335,350 327,357 330,367 320,360 310,367 313,357 305,350 315,350" fill="#ffd700"/>
</svg>